<svg width="828" height="343" viewBox="0 0 828 343" fill="none" xmlns="http://www.w3.org/2000/svg">
<rect x="0.500244" y="1.06885" width="827" height="341" stroke="#ECECEC"/>
<g clip-path="url(#clip0_1259_12776)">
<path d="M313.097 144.322H336.284C351.002 144.322 360.484 156.193 360.484 172.455C360.484 181.395 357.48 189.261 351.702 194.11C347.612 197.5 342.304 199.431 335.367 199.431H313.097V144.322ZM334.595 189.804C345.079 189.804 349.168 183.41 349.168 172.455C349.168 161.501 344.391 153.877 334.909 153.877H324.28V189.792H334.595V189.804Z" fill="black"/>
<path d="M362.149 179.694C362.149 167.895 370.546 158.811 382.803 158.811C395.06 158.811 403.457 167.907 403.457 179.694C403.457 191.48 395.06 200.577 382.803 200.577C370.546 200.577 362.149 191.48 362.149 179.694ZM392.828 179.694C392.828 171.985 389.209 166.749 382.803 166.749C376.397 166.749 372.778 171.985 372.778 179.694C372.778 187.403 376.324 192.566 382.803 192.566C389.281 192.566 392.828 187.403 392.828 179.694Z" fill="black"/>
<path d="M405.616 179.694C405.616 167.895 413.325 158.811 425.353 158.811C435.608 158.811 441.929 164.746 443.316 173.3H433.062C432.362 169.825 429.672 167.208 425.811 167.208C419.49 167.208 416.257 172.069 416.257 179.694C416.257 187.318 419.261 192.18 425.655 192.18C429.889 192.18 432.905 189.948 433.593 185.473H443.69C443.003 193.869 436.44 200.577 425.884 200.577C413.398 200.577 405.616 191.48 405.616 179.694Z" fill="black"/>
<path d="M471.414 199.431V194.81H471.184C468.482 198.429 465.406 200.516 459.856 200.516C451.074 200.516 446.139 194.895 446.139 186.257V159.885H456.551V184.471C456.551 189.092 458.638 191.637 463.101 191.637C468.036 191.637 471.04 187.934 471.04 182.698V159.885H481.523V199.431H471.426H471.414Z" fill="black"/>
<path d="M532.579 144.563H543.062V154.36H532.579V144.563ZM532.579 159.897H543.062V199.431H532.579V159.885V159.897Z" fill="black"/>
<path d="M547.417 200.589H557.829C558.673 203.05 560.917 204.98 565.767 204.98C571.702 204.98 574.549 202.133 574.549 196.728V192.409H574.32C572.004 195.027 569 197.03 563.993 197.03C555.211 197.03 546.573 190.093 546.573 178.15C546.573 166.206 553.666 158.799 563.68 158.799C568.614 158.799 572.233 160.729 574.622 164.035H574.779V159.873H584.876V196.403C584.876 201.952 583.103 205.728 580.171 208.431C576.854 211.519 571.775 212.906 565.911 212.906C555.126 212.906 548.491 208.286 547.417 200.577V200.589ZM575.092 177.933C575.092 172.154 572.004 167.22 565.694 167.22C560.374 167.22 556.827 171.382 556.827 178.005C556.827 184.628 560.374 188.645 565.767 188.645C572.39 188.645 575.092 183.784 575.092 177.933Z" fill="black"/>
<path d="M599.619 165.277H599.848C602.55 161.043 606.17 158.799 611.562 158.799C619.73 158.799 625.207 164.964 625.207 173.602V199.419H614.723V175.134C614.723 170.899 612.262 167.883 607.859 167.883C603.238 167.883 599.848 171.587 599.848 176.98V199.407H589.364V159.885H599.619V165.277Z" fill="black"/>
<path d="M508.692 166.206C500.524 164.433 496.664 163.118 496.664 158.654C496.664 154.721 500.597 152.176 506.604 152.176C512.094 152.176 516.28 154.745 517.148 159.885H527.898C526.8 149.184 518.862 143.309 506.689 143.309C494.516 143.309 485.565 148.931 485.565 159.8C485.565 171.285 494.589 173.903 504.445 176.135C512.842 178.065 518.089 179.139 518.089 184.532C518.089 189.623 513.083 191.625 507.377 191.625C499.511 191.625 495.735 189.007 494.963 182.372H484.021C484.407 194.014 492.888 200.637 507.835 200.637C520.249 200.637 529.261 194.388 529.261 183.217C529.261 171.346 520.008 168.643 508.68 166.182L508.692 166.206Z" fill="black"/>
<path d="M629.465 167.195C627.161 167.195 625.291 165.325 625.291 163.021C625.291 160.717 627.161 158.847 629.465 158.847C631.769 158.847 633.639 160.717 633.639 163.021C633.639 165.325 631.769 167.195 629.465 167.195ZM629.465 159.511C627.523 159.511 625.955 161.091 625.955 163.021C625.955 164.951 627.535 166.532 629.465 166.532C631.395 166.532 632.976 164.951 632.976 163.021C632.976 161.091 631.395 159.511 629.465 159.511Z" fill="black"/>
<path d="M628.03 160.874H629.393C629.96 160.874 630.346 160.874 630.72 161.188C630.985 161.405 631.19 161.743 631.19 162.237C631.19 163.058 630.587 163.335 630.346 163.407L631.299 165.145H630.382L629.538 163.564H628.826V165.145H628.03V160.886V160.874ZM628.826 161.562V162.901H629.103C629.381 162.901 629.477 162.901 629.634 162.889C629.815 162.889 630.382 162.852 630.382 162.225C630.382 162.129 630.382 161.815 630.044 161.646C629.875 161.562 629.67 161.562 629.2 161.562H628.826Z" fill="black"/>
<path d="M286.097 125.514H193.988V217.623H286.097V125.514Z" fill="#D5FF00"/>
<path d="M273.297 195.884H206.775V204.836H273.297V195.884Z" fill="black"/>
<path d="M240.048 190.757L246.382 184.435L265.636 165.169L259.23 158.775L244.524 173.493V137.023H235.56L235.572 173.493L220.854 158.775L214.46 165.169L233.714 184.435L240.048 190.757Z" fill="black"/>
</g>
<defs>
<clipPath id="clip0_1259_12776">
<rect width="440.025" height="92.1093" fill="white" transform="translate(193.988 125.514)"/>
</clipPath>
</defs>
</svg>
