<svg width="232.967" height="162.941" viewBox="0 0 232.967 162.941" xmlns="http://www.w3.org/2000/svg"><g id="svgGroup" stroke-linecap="round" fill-rule="evenodd" font-size="9pt" stroke="#000" stroke-width="0.25mm" fill="#000" style="stroke:#000;stroke-width:0.25mm;fill:#000"><path d="M 40.9 93.964 Q 41.6 92.964 42.5 92.464 Q 43.4 91.964 44.15 92.114 Q 44.9 92.264 45.25 93.164 Q 45.6 94.064 45.3 95.764 Q 45.147 96.836 44.877 98.699 A 3587.942 3587.942 0 0 1 44.7 99.914 Q 44.327 102.481 43.91 105.702 A 529.271 529.271 0 0 0 43.85 106.164 Q 43.4 109.664 43.1 113.714 Q 42.8 117.764 42.8 121.864 Q 42.8 125.964 43.3 129.864 A 34.759 34.759 0 0 0 44.084 134.03 A 28.161 28.161 0 0 0 45 136.964 Q 46.072 131.835 48.315 125.3 A 163.801 163.801 0 0 1 49.8 121.164 A 254.804 254.804 0 0 1 54.068 110.515 A 325.918 325.918 0 0 1 58 101.664 Q 62.8 91.264 68.6 80.214 Q 74.4 69.164 80.65 58.464 A 562.533 562.533 0 0 1 90.025 42.976 A 505.244 505.244 0 0 1 93.15 38.064 Q 99.4 28.364 105.1 20.664 Q 110.8 12.964 115.5 7.864 Q 119.294 3.747 122.11 2.041 A 11.067 11.067 0 0 1 123.4 1.364 Q 126.4 0 129.152 0 A 10.971 10.971 0 0 1 129.7 0.014 Q 132.589 0.158 134.087 1.137 A 4.291 4.291 0 0 1 134.2 1.214 Q 135.7 2.264 135.2 3.914 A 2.66 2.66 0 0 1 134.596 4.918 Q 133.912 5.671 132.543 6.392 A 17.845 17.845 0 0 1 131.1 7.064 A 22.294 22.294 0 0 0 127.73 8.875 Q 124.606 10.886 121.05 14.314 A 102.42 102.42 0 0 0 116.089 19.464 Q 112.831 23.076 109.4 27.464 A 238.05 238.05 0 0 0 102.458 36.824 A 299.744 299.744 0 0 0 96.95 44.914 Q 90.6 54.564 84.5 65.064 Q 78.4 75.564 72.7 86.414 Q 67 97.264 62.35 107.514 Q 57.7 117.764 54.2 126.814 A 184.308 184.308 0 0 0 51.828 133.285 Q 50.725 136.49 49.896 139.353 A 93.095 93.095 0 0 0 49 142.664 A 11.163 11.163 0 0 1 48.432 144.313 A 8.217 8.217 0 0 1 47.55 145.864 A 11.991 11.991 0 0 1 46.709 146.896 Q 46.265 147.38 45.81 147.749 A 6.9 6.9 0 0 1 45.6 147.914 Q 44.6 148.664 43.7 148.964 A 4.706 4.706 0 0 1 43.384 149.058 Q 42.743 149.222 42.417 149.072 A 0.605 0.605 0 0 1 42.4 149.064 Q 40.6 148.364 39.5 145.214 A 29.314 29.314 0 0 1 38.643 142.228 Q 38.28 140.677 38.016 138.913 A 52.311 52.311 0 0 1 37.85 137.714 A 92.702 92.702 0 0 1 37.283 131.472 A 109.562 109.562 0 0 1 37.15 128.464 Q 37 123.564 37.05 119.514 Q 37.095 115.891 37.14 113.468 A 484.762 484.762 0 0 1 37.15 112.914 Q 37.198 110.464 37.015 110.644 A 0.123 0.123 0 0 0 37 110.664 Q 31.3 119.964 27.3 128.264 A 579.486 579.486 0 0 0 24.011 135.201 Q 22.526 138.389 21.237 141.274 A 340.746 340.746 0 0 0 20.4 143.164 Q 17.5 149.764 15.35 154.264 Q 13.466 158.207 11.621 160 A 7.711 7.711 0 0 1 11.1 160.464 A 14.619 14.619 0 0 1 9.548 161.593 Q 8.095 162.501 6.75 162.764 A 9.878 9.878 0 0 1 5.759 162.907 Q 4.757 162.999 3.905 162.843 A 5.162 5.162 0 0 1 3.2 162.664 Q 1.7 162.164 0.85 160.914 Q 0 159.664 0 158.164 Q 0.09 154.914 0.955 149.422 A 158.755 158.755 0 0 1 1.15 148.214 Q 2.13 142.285 3.677 134.962 A 429.967 429.967 0 0 1 3.9 133.914 Q 5.6 125.964 7.8 116.964 Q 10 107.964 12.35 99.014 A 1129.448 1129.448 0 0 1 16.756 82.716 A 1032.771 1032.771 0 0 1 17.05 81.664 A 1799.706 1799.706 0 0 1 19.233 73.925 Q 20.275 70.262 21.224 66.997 A 1084.926 1084.926 0 0 1 21.35 66.564 Q 23.277 59.943 24.667 55.471 A 350.887 350.887 0 0 1 24.7 55.364 Q 25.82 51.763 26.428 50.339 A 6.886 6.886 0 0 1 26.7 49.764 A 13.107 13.107 0 0 1 27.707 48.016 Q 28.968 46.196 30.55 45.564 Q 31.707 45.101 32.745 45.101 A 4.29 4.29 0 0 1 34.6 45.514 A 4.366 4.366 0 0 1 36.588 47.426 A 6.493 6.493 0 0 1 37.1 48.664 A 5.496 5.496 0 0 1 37.328 50.036 Q 37.393 51.58 36.708 53.48 A 15.25 15.25 0 0 1 36.4 54.264 A 13.252 13.252 0 0 0 36.19 54.713 Q 35.711 55.778 34.476 58.731 A 795.907 795.907 0 0 0 33.9 60.114 Q 31.905 64.912 29.142 72.239 A 723.884 723.884 0 0 0 28.85 73.014 Q 25.995 80.611 22.672 90.128 A 1074.675 1074.675 0 0 0 22.45 90.764 Q 19 100.664 16 111.264 Q 13 121.864 10.9 132.414 A 144.671 144.671 0 0 0 9.075 143.855 A 114.522 114.522 0 0 0 8.4 152.164 A 16.066 16.066 0 0 0 8.385 152.471 Q 8.341 153.583 8.495 154.05 A 0.75 0.75 0 0 0 8.6 154.264 Q 8.9 154.664 9.45 154.314 Q 9.989 153.971 10.623 153.148 A 10.072 10.072 0 0 0 10.65 153.114 A 224.53 224.53 0 0 0 11.749 151.664 A 202.649 202.649 0 0 0 11.9 151.464 A 2.054 2.054 0 0 0 12.058 151.179 Q 12.532 150.212 14.045 146.327 A 177.398 177.398 0 0 0 14.05 146.314 Q 15.9 141.564 19.5 133.714 A 328.421 328.421 0 0 1 22.439 127.489 Q 23.763 124.754 25.254 121.786 A 578.641 578.641 0 0 1 28.4 115.614 A 263.167 263.167 0 0 1 34.964 103.719 A 332.176 332.176 0 0 1 40.9 93.964 Z" id="0" vector-effect="non-scaling-stroke"/><path d="M 101.281 89.648 A 6.127 6.127 0 0 0 100.3 89.464 Q 99.161 89.344 98.077 89.745 A 6.092 6.092 0 0 0 96.65 90.514 Q 94.9 91.764 93.5 93.514 Q 92.1 95.264 91 97.164 A 117.969 117.969 0 0 0 90.517 98.005 Q 90.023 98.876 89.688 99.507 A 26.112 26.112 0 0 0 89.4 100.064 A 12.167 12.167 0 0 1 89.262 100.33 Q 88.89 101.03 87.95 102.664 A 156.548 156.548 0 0 0 87.187 104.006 Q 86.784 104.724 86.337 105.535 A 327.261 327.261 0 0 0 85.2 107.614 Q 83.6 110.564 81.9 114.114 Q 80.2 117.664 78.85 121.314 A 71.027 71.027 0 0 0 78.361 122.677 A 63.14 63.14 0 0 0 76.65 128.464 A 27.652 27.652 0 0 0 76.611 128.625 Q 75.807 132.026 76.1 134.664 A 13.569 13.569 0 0 0 76.288 136.069 Q 76.491 137.136 76.859 137.993 A 5.846 5.846 0 0 0 78.2 139.964 A 4.852 4.852 0 0 0 80.088 141.076 Q 81.045 141.38 82.201 141.334 A 8.638 8.638 0 0 0 83 141.264 A 9.014 9.014 0 0 0 83.163 141.245 Q 85.918 140.899 89.9 138.714 Q 94 136.464 98.7 133.164 A 144.485 144.485 0 0 0 99.876 132.329 A 159.924 159.924 0 0 0 108.15 125.964 A 327.475 327.475 0 0 0 111.055 123.551 A 276.799 276.799 0 0 0 117 118.414 Q 119.563 116.132 121.656 114.125 A 111.865 111.865 0 0 0 124 111.814 Q 126.9 108.864 127.9 107.464 Q 128.4 106.764 128.35 106.014 A 2.702 2.702 0 0 0 128.285 105.569 A 2.015 2.015 0 0 0 127.9 104.764 A 2 2 0 0 0 127.711 104.558 A 1.478 1.478 0 0 0 126.95 104.164 A 0.882 0.882 0 0 0 126.792 104.149 Q 126.449 104.149 126.086 104.415 A 2.495 2.495 0 0 0 125.8 104.664 Q 122.9 107.664 119.15 111.064 A 260.124 260.124 0 0 1 118.68 111.489 A 283.493 283.493 0 0 1 111.3 117.914 Q 107.2 121.364 103.05 124.564 Q 98.9 127.764 95.25 130.314 A 119.286 119.286 0 0 1 93.853 131.275 Q 92.347 132.296 90.981 133.15 A 64.763 64.763 0 0 1 88.7 134.514 Q 86.616 135.7 85.203 136.188 A 7.124 7.124 0 0 1 84.2 136.464 Q 83.463 136.611 82.508 136.297 A 6.569 6.569 0 0 1 81.8 136.014 A 1.907 1.907 0 0 1 81.228 135.604 Q 80.377 134.724 80.3 132.564 A 6.826 6.826 0 0 1 80.296 132.32 Q 80.296 129.521 82.45 124.064 Q 84.7 118.364 91 108.464 A 2.38 2.38 0 0 1 91.071 108.347 Q 91.422 107.808 92.388 106.851 A 34.604 34.604 0 0 1 93.05 106.214 Q 94.7 104.664 96.7 102.964 A 154.247 154.247 0 0 0 97.805 102.015 A 132.608 132.608 0 0 0 100.45 99.664 A 43.085 43.085 0 0 0 100.568 99.555 Q 102.217 98.036 102.7 97.264 Q 103.028 96.804 103.292 96.108 A 9.435 9.435 0 0 0 103.55 95.314 Q 103.9 94.064 103.8 92.814 Q 103.7 91.564 102.9 90.614 A 2.685 2.685 0 0 0 102.208 90.035 Q 101.805 89.796 101.281 89.648 Z M 114.3 71.564 Q 115.1 70.964 116.25 70.264 A 11.658 11.658 0 0 1 118.301 69.268 A 10.731 10.731 0 0 1 118.6 69.164 A 6.479 6.479 0 0 1 119.593 68.914 Q 120.246 68.806 120.85 68.864 Q 121.9 68.964 122.4 69.964 Q 122.788 71.031 121.952 72.947 A 11.468 11.468 0 0 1 121.9 73.064 A 12.316 12.316 0 0 1 121.166 74.388 Q 120.726 75.085 120.148 75.834 A 25.97 25.97 0 0 1 119.35 76.814 Q 117.6 78.864 115.5 80.714 A 35.262 35.262 0 0 1 111.885 83.515 A 31.839 31.839 0 0 1 111.2 83.964 A 16.845 16.845 0 0 1 109.763 84.788 Q 108.422 85.466 107.3 85.664 Q 106.466 85.891 105.919 85.802 A 1.419 1.419 0 0 1 105.6 85.714 Q 105 85.464 104.7 85.014 A 1.791 1.791 0 0 1 104.453 84.477 A 1.61 1.61 0 0 1 104.4 84.064 L 104.4 83.264 A 4.01 4.01 0 0 1 104.585 82.676 Q 104.882 81.918 105.55 80.864 Q 106.5 79.364 107.9 77.714 Q 109.3 76.064 110.95 74.414 A 27.39 27.39 0 0 1 113.137 72.442 A 23.087 23.087 0 0 1 114.3 71.564 Z" id="1" vector-effect="non-scaling-stroke"/><path d="M 183.9 28.564 A 112.406 112.406 0 0 0 183.966 28.375 Q 185.903 22.822 186.1 20.364 A 34.55 34.55 0 0 0 186.167 18.208 A 36.132 36.132 0 0 0 186.15 17.114 A 13.099 13.099 0 0 0 186.026 15.644 A 9.764 9.764 0 0 0 185.7 14.164 Q 185.488 13.473 185.205 12.923 A 4.96 4.96 0 0 0 184.65 12.064 A 2.079 2.079 0 0 0 183.72 11.396 A 2.439 2.439 0 0 0 182.9 11.264 Q 181.317 11.264 179.052 12.884 A 21.73 21.73 0 0 0 177.5 14.114 A 42.84 42.84 0 0 0 175.612 15.853 Q 173.065 18.334 170.1 21.914 Q 166 26.864 161.35 33.614 Q 156.7 40.364 151.95 48.164 Q 147.2 55.964 142.65 64.464 Q 138.1 72.964 134.15 81.414 Q 130.2 89.864 127.1 97.914 Q 124 105.964 122.2 112.914 A 85.991 85.991 0 0 0 121.724 114.84 Q 121.057 117.686 120.666 120.274 A 48.967 48.967 0 0 0 120.15 125.364 A 30.947 30.947 0 0 0 120.146 125.447 Q 119.914 130.889 121.7 134.164 A 14.134 14.134 0 0 0 123.526 136.791 A 8.742 8.742 0 0 0 129.15 139.814 Q 133.8 140.364 139.3 138.014 Q 144.8 135.664 150.6 131.414 A 137.088 137.088 0 0 0 152.037 130.346 A 123.718 123.718 0 0 0 161.35 122.614 Q 163.98 120.196 166.228 117.963 A 122.292 122.292 0 0 0 169.9 114.164 A 233.076 233.076 0 0 0 171.103 112.851 Q 172.945 110.825 173.978 109.574 A 25.365 25.365 0 0 0 174.7 108.664 A 3.553 3.553 0 0 0 174.756 108.59 Q 175.245 107.927 175.245 107.264 A 1.839 1.839 0 0 0 175.2 106.864 A 3.535 3.535 0 0 0 175.021 106.286 A 2.631 2.631 0 0 0 174.45 105.414 Q 173.9 104.864 173.15 104.764 Q 172.4 104.664 172 105.364 Q 170.9 107.064 167.65 110.614 A 107.233 107.233 0 0 1 167.213 111.088 Q 165.667 112.756 163.872 114.555 A 178.787 178.787 0 0 1 160 118.314 Q 155.6 122.464 150.55 126.464 A 72.611 72.611 0 0 1 145.893 129.873 A 54.132 54.132 0 0 1 140.8 132.914 A 32.064 32.064 0 0 1 139.174 133.705 Q 135.423 135.399 132.25 135.564 Q 128.4 135.764 126.4 132.264 A 7.584 7.584 0 0 1 125.993 131.484 Q 125.555 130.515 125.33 129.334 A 14.007 14.007 0 0 1 125.1 127.164 Q 125 124.064 125.7 120.114 Q 126.4 116.164 127.85 111.464 Q 129.3 106.764 131.3 101.564 A 67.979 67.979 0 0 0 136.916 97.762 A 80.64 80.64 0 0 0 145.9 89.864 Q 152.9 82.764 158.95 74.564 Q 165 66.364 169.9 57.814 Q 174.8 49.264 178.35 41.764 Q 181.9 34.264 183.9 28.564 Z M 177.121 20.927 A 52.088 52.088 0 0 0 177.05 21.014 A 92.164 92.164 0 0 0 175.024 23.583 Q 173.992 24.936 172.836 26.531 A 225.757 225.757 0 0 0 170.4 29.964 A 252.654 252.654 0 0 0 166.844 35.218 Q 165.06 37.922 163.143 40.955 A 428.38 428.38 0 0 0 161.85 43.014 A 411.029 411.029 0 0 0 154.819 54.723 A 472.921 472.921 0 0 0 152.45 58.864 Q 147.7 67.264 143.1 76.114 A 306.866 306.866 0 0 0 136.706 89.136 A 270.781 270.781 0 0 0 134.8 93.364 A 68.851 68.851 0 0 0 143.949 85.703 A 83.942 83.942 0 0 0 148.5 80.814 Q 155 73.264 160.45 64.764 A 189.95 189.95 0 0 0 169.069 49.927 A 172.473 172.473 0 0 0 170.15 47.814 A 238.253 238.253 0 0 0 173.572 40.736 Q 175.079 37.475 176.31 34.509 A 136.698 136.698 0 0 0 177.1 32.564 A 144.755 144.755 0 0 0 178.622 28.572 Q 179.955 24.9 180.646 22.229 A 38.062 38.062 0 0 0 180.8 21.614 A 31.992 31.992 0 0 0 180.995 20.757 Q 181.672 17.561 180.846 17.561 A 0.462 0.462 0 0 0 180.8 17.564 Q 179.813 17.662 177.121 20.927 Z" id="2" vector-effect="non-scaling-stroke"/><path d="M 230.7 28.564 A 112.406 112.406 0 0 0 230.766 28.375 Q 232.703 22.822 232.9 20.364 A 34.55 34.55 0 0 0 232.967 18.208 A 36.132 36.132 0 0 0 232.95 17.114 A 13.099 13.099 0 0 0 232.826 15.644 A 9.764 9.764 0 0 0 232.5 14.164 Q 232.288 13.473 232.005 12.923 A 4.96 4.96 0 0 0 231.45 12.064 A 2.079 2.079 0 0 0 230.52 11.396 A 2.439 2.439 0 0 0 229.7 11.264 Q 228.117 11.264 225.852 12.884 A 21.73 21.73 0 0 0 224.3 14.114 A 42.84 42.84 0 0 0 222.412 15.853 Q 219.865 18.334 216.9 21.914 Q 212.8 26.864 208.15 33.614 Q 203.5 40.364 198.75 48.164 Q 194 55.964 189.45 64.464 Q 184.9 72.964 180.95 81.414 Q 177 89.864 173.9 97.914 Q 170.8 105.964 169 112.914 A 85.991 85.991 0 0 0 168.524 114.84 Q 167.857 117.686 167.466 120.274 A 48.967 48.967 0 0 0 166.95 125.364 A 30.947 30.947 0 0 0 166.946 125.447 Q 166.714 130.889 168.5 134.164 A 14.134 14.134 0 0 0 170.326 136.791 A 8.742 8.742 0 0 0 175.95 139.814 Q 180.6 140.364 186.1 138.014 Q 191.6 135.664 197.4 131.414 A 137.088 137.088 0 0 0 198.837 130.346 A 123.718 123.718 0 0 0 208.15 122.614 Q 210.78 120.196 213.028 117.963 A 122.292 122.292 0 0 0 216.7 114.164 A 233.076 233.076 0 0 0 217.903 112.851 Q 219.745 110.825 220.778 109.574 A 25.365 25.365 0 0 0 221.5 108.664 A 3.553 3.553 0 0 0 221.556 108.59 Q 222.045 107.927 222.045 107.264 A 1.839 1.839 0 0 0 222 106.864 A 3.535 3.535 0 0 0 221.821 106.286 A 2.631 2.631 0 0 0 221.25 105.414 Q 220.7 104.864 219.95 104.764 Q 219.2 104.664 218.8 105.364 Q 217.7 107.064 214.45 110.614 A 107.233 107.233 0 0 1 214.013 111.088 Q 212.467 112.756 210.672 114.555 A 178.787 178.787 0 0 1 206.8 118.314 Q 202.4 122.464 197.35 126.464 A 72.611 72.611 0 0 1 192.693 129.873 A 54.132 54.132 0 0 1 187.6 132.914 A 32.064 32.064 0 0 1 185.974 133.705 Q 182.223 135.399 179.05 135.564 Q 175.2 135.764 173.2 132.264 A 7.584 7.584 0 0 1 172.793 131.484 Q 172.355 130.515 172.13 129.334 A 14.007 14.007 0 0 1 171.9 127.164 Q 171.8 124.064 172.5 120.114 Q 173.2 116.164 174.65 111.464 Q 176.1 106.764 178.1 101.564 A 67.979 67.979 0 0 0 183.716 97.762 A 80.64 80.64 0 0 0 192.7 89.864 Q 199.7 82.764 205.75 74.564 Q 211.8 66.364 216.7 57.814 Q 221.6 49.264 225.15 41.764 Q 228.7 34.264 230.7 28.564 Z M 223.921 20.927 A 52.088 52.088 0 0 0 223.85 21.014 A 92.164 92.164 0 0 0 221.824 23.583 Q 220.792 24.936 219.636 26.531 A 225.757 225.757 0 0 0 217.2 29.964 A 252.654 252.654 0 0 0 213.644 35.218 Q 211.86 37.922 209.943 40.955 A 428.38 428.38 0 0 0 208.65 43.014 A 411.029 411.029 0 0 0 201.619 54.723 A 472.921 472.921 0 0 0 199.25 58.864 Q 194.5 67.264 189.9 76.114 A 306.866 306.866 0 0 0 183.506 89.136 A 270.781 270.781 0 0 0 181.6 93.364 A 68.851 68.851 0 0 0 190.749 85.703 A 83.942 83.942 0 0 0 195.3 80.814 Q 201.8 73.264 207.25 64.764 A 189.95 189.95 0 0 0 215.869 49.927 A 172.473 172.473 0 0 0 216.95 47.814 A 238.253 238.253 0 0 0 220.372 40.736 Q 221.879 37.475 223.11 34.509 A 136.698 136.698 0 0 0 223.9 32.564 A 144.755 144.755 0 0 0 225.422 28.572 Q 226.755 24.9 227.446 22.229 A 38.062 38.062 0 0 0 227.6 21.614 A 31.992 31.992 0 0 0 227.795 20.757 Q 228.472 17.561 227.646 17.561 A 0.462 0.462 0 0 0 227.6 17.564 Q 226.613 17.662 223.921 20.927 Z" id="3" vector-effect="non-scaling-stroke"/></g></svg>
