<svg width="365.625" height="72.022" viewBox="0 0 365.625 72.022" xmlns="http://www.w3.org/2000/svg"><g id="svgGroup" stroke-linecap="round" fill-rule="evenodd" font-size="9pt" stroke="#00000000" stroke-width="0.25mm" fill="#00000000" style="stroke:#00000000;stroke-width:0.25mm;fill:#00000000"><path d="M 39.111 72.021 L 36.133 72.021 L 10.01 20.703 L 10.01 72.021 L 0 72.021 L 0 2.002 L 10.938 2.002 L 37.598 54.736 L 64.307 2.002 L 75.195 2.002 L 75.195 72.021 L 65.234 72.021 L 65.234 20.703 L 39.111 72.021 Z M 315.625 72.021 L 305.615 72.021 L 288.818 20.02 L 298.535 20.02 L 310.84 59.229 L 322.314 20.02 L 332.129 20.02 L 343.604 59.229 L 355.908 20.02 L 365.625 20.02 L 348.828 72.021 L 338.818 72.021 L 327.197 33.838 L 315.625 72.021 Z M 151.221 62.402 L 183.643 62.402 L 183.643 50.342 L 160.84 50.342 Q 158.838 50.342 157.08 49.585 A 9.681 9.681 0 0 1 154.028 47.534 A 9.681 9.681 0 0 1 151.978 44.482 Q 151.221 42.725 151.221 40.723 L 151.221 29.639 Q 151.221 27.637 151.978 25.879 A 9.681 9.681 0 0 1 154.028 22.827 A 9.681 9.681 0 0 1 157.08 20.776 Q 158.838 20.02 160.84 20.02 L 191.26 20.02 L 191.26 29.639 L 160.84 29.639 L 160.84 40.723 L 183.643 40.723 A 9.319 9.319 0 0 1 186.94 41.302 A 8.893 8.893 0 0 1 187.378 41.479 A 10.064 10.064 0 0 1 190.43 43.53 A 9.48 9.48 0 0 1 192.505 46.582 Q 193.262 48.34 193.262 50.342 L 193.262 62.402 Q 193.262 64.404 192.505 66.162 A 9.48 9.48 0 0 1 190.43 69.214 Q 189.111 70.508 187.378 71.265 A 9.201 9.201 0 0 1 183.767 72.021 A 10.524 10.524 0 0 1 183.643 72.021 L 151.221 72.021 L 151.221 62.402 Z M 92.236 62.402 L 92.236 49.316 A 9.319 9.319 0 0 1 92.816 46.019 A 8.893 8.893 0 0 1 92.993 45.581 A 10.064 10.064 0 0 1 95.044 42.529 A 9.48 9.48 0 0 1 98.096 40.454 A 9.285 9.285 0 0 1 101.807 39.697 L 126.611 39.697 L 126.611 29.639 L 95.215 29.639 L 95.215 20.02 L 126.611 20.02 Q 128.613 20.02 130.371 20.776 A 9.681 9.681 0 0 1 133.423 22.827 A 9.681 9.681 0 0 1 135.474 25.879 Q 136.23 27.637 136.23 29.639 L 136.23 72.021 L 126.611 72.021 L 126.611 63.232 Q 126.465 65.039 125.635 66.65 Q 124.805 68.262 123.511 69.458 Q 122.217 70.654 120.557 71.338 Q 118.896 72.021 117.041 72.021 L 101.807 72.021 A 9.285 9.285 0 0 1 98.096 71.265 A 9.681 9.681 0 0 1 95.044 69.214 A 9.681 9.681 0 0 1 92.993 66.162 Q 92.236 64.404 92.236 62.402 Z M 278.809 29.639 L 278.809 62.402 Q 278.809 64.404 278.052 66.162 A 9.681 9.681 0 0 1 276.001 69.214 A 9.758 9.758 0 0 1 272.974 71.265 A 9.201 9.201 0 0 1 269.363 72.021 A 10.524 10.524 0 0 1 269.238 72.021 L 243.408 72.021 A 9.285 9.285 0 0 1 239.697 71.265 A 9.681 9.681 0 0 1 236.646 69.214 A 9.681 9.681 0 0 1 234.595 66.162 Q 233.838 64.404 233.838 62.402 L 233.838 29.639 Q 233.838 27.637 234.595 25.879 A 9.681 9.681 0 0 1 236.646 22.827 A 9.681 9.681 0 0 1 239.697 20.776 A 9.285 9.285 0 0 1 243.408 20.02 L 269.238 20.02 A 9.319 9.319 0 0 1 272.536 20.599 A 8.893 8.893 0 0 1 272.974 20.776 A 9.758 9.758 0 0 1 276.001 22.827 A 9.681 9.681 0 0 1 278.052 25.879 Q 278.809 27.637 278.809 29.639 Z M 208.252 0 L 217.822 0 L 217.822 72.021 L 208.252 72.021 L 208.252 0 Z M 269.238 29.639 L 243.408 29.639 L 243.408 62.402 L 269.238 62.402 L 269.238 29.639 Z M 101.807 49.316 L 101.807 62.402 L 126.611 62.402 L 126.611 49.316 L 101.807 49.316 Z" vector-effect="non-scaling-stroke"/></g></svg>